<svg width="94" height="20" viewBox="0 0 94 20" fill="none" xmlns="http://www.w3.org/2000/svg"><path d="M2.92894 2.59349C1.53041 3.99201 0.578004 5.77384 0.192152 7.71365C-0.1937 9.65346 0.00433254 11.6641 0.761208 13.4914C1.51808 15.3186 2.79981 16.8804 4.4443 17.9792C6.08879 19.0781 8.02219 19.5202 10 19.5202C11.9778 19.5202 13.9112 19.0781 15.5557 17.9792C17.2002 16.8804 18.4819 15.3186 19.2388 13.4914C19.9957 11.6641 20.1937 9.65346 19.8078 7.71365C19.422 5.77384 18.4696 3.99201 17.0711 2.59349C16.8566 2.37904 16.6311 2.17566 16.4011 1.98335C16.2331 1.84285 15.9799 1.99057 15.9939 2.20916C16.0417 2.95637 15.9492 3.70781 15.719 4.42409C15.4265 5.33443 14.9203 6.1615 14.2426 6.83613C13.3432 7.73558 12.1814 8.32612 10.9246 8.52255C9.66789 8.71898 8.38124 8.51116 7.25025 7.92906C6.11927 7.34696 5.2024 6.42067 4.6319 5.28379C4.15284 4.32914 3.9388 3.26743 4.0064 2.20872C4.02036 1.99019 3.76725 1.84259 3.59926 1.98305C3.36913 2.17545 3.14349 2.37893 2.92894 2.59349Z" fill="white"/><path d="M28 2.056H32.176V18.856H28V2.056ZM34 18.856H30.688V15.256H33.856C34.496 15.256 35.112 15.176 35.704 15.016C36.312 14.856 36.84 14.592 37.288 14.224C37.752 13.856 38.12 13.368 38.392 12.76C38.664 12.136 38.8 11.368 38.8 10.456C38.8 9.544 38.664 8.784 38.392 8.176C38.12 7.552 37.752 7.056 37.288 6.688C36.84 6.32 36.312 6.056 35.704 5.896C35.112 5.736 34.496 5.656 33.856 5.656H30.688V2.056H34C35.84 2.056 37.432 2.4 38.776 3.088C40.12 3.776 41.16 4.744 41.896 5.992C42.632 7.24 43 8.728 43 10.456C43 12.168 42.632 13.656 41.896 14.92C41.16 16.168 40.12 17.136 38.776 17.824C37.432 18.512 35.84 18.856 34 18.856Z" fill="white"/><path d="M47.515 15.616L47.803 12.52H56.131L56.395 15.616H47.515ZM51.907 8.224L49.555 13.648L49.747 14.536L47.659 18.856H43.075L51.907 1L60.763 18.856H56.155L54.139 14.704L54.283 13.672L51.907 8.224Z" fill="white"/><path d="M66.7234 11.248H70.9234L76.1794 18.856H71.4274L66.7234 11.248ZM62.5234 2.056H66.5794V18.856H62.5234V2.056ZM65.0674 5.488V2.056H68.6434C70.0834 2.056 71.2834 2.288 72.2434 2.752C73.2034 3.216 73.9314 3.864 74.4274 4.696C74.9234 5.512 75.1714 6.464 75.1714 7.552C75.1714 8.624 74.9234 9.576 74.4274 10.408C73.9314 11.224 73.2034 11.864 72.2434 12.328C71.2834 12.792 70.0834 13.024 68.6434 13.024H65.0674V9.88H68.3554C68.8994 9.88 69.3634 9.8 69.7474 9.64C70.1474 9.464 70.4514 9.216 70.6594 8.896C70.8674 8.56 70.9714 8.16 70.9714 7.696C70.9714 7.232 70.8674 6.84 70.6594 6.52C70.4514 6.184 70.1474 5.928 69.7474 5.752C69.3634 5.576 68.8994 5.488 68.3554 5.488H65.0674Z" fill="white"/><path d="M80.7025 15.616L80.9905 12.52H89.3185L89.5825 15.616H80.7025ZM85.0945 8.224L82.7425 13.648L82.9345 14.536L80.8465 18.856H76.2625L85.0945 1L93.9505 18.856H89.3425L87.3265 14.704L87.4705 13.672L85.0945 8.224Z" fill="white"/></svg>